<svg width="194" height="174" viewBox="0 0 194 174" fill="none" xmlns="http://www.w3.org/2000/svg">
<path d="M38.12 121.872C38.632 121.152 38.872 120.352 38.872 119.456C38.872 118.288 38.456 117.296 37.624 116.448C36.792 115.616 35.784 115.2 34.616 115.2H29L30.104 117.104L30.344 117.344H34.616C35.192 117.344 35.688 117.552 36.104 117.968C36.536 118.384 36.744 118.88 36.744 119.456C36.744 120.048 36.536 120.56 36.104 120.976C35.688 121.392 35.192 121.6 34.616 121.6L32.712 121.584L36.424 128H38.872L36.248 123.408C37 123.104 37.624 122.592 38.12 121.872ZM48.8999 121.6L53.8919 115.2H51.1879L47.5399 119.872L43.9079 115.2H41.1719L46.1959 121.6L41.1719 128H43.9079L47.5399 123.328V123.344L48.8999 121.6ZM47.5399 123.328L43.9079 128L47.5399 123.344V123.328ZM54.1714 123.744L56.0594 119.984L57.9314 123.744H60.3314L56.0594 115.2L49.6594 128H52.0274L53.1154 125.856L54.1714 123.744ZM61.3874 125.872H59.0194L60.0754 128H62.4594L61.3874 125.872ZM66.4026 115.2V122.864L57.8906 115.2V118.432L68.5306 128V127.984V127.968V115.2H66.4026ZM81.0324 126.768C81.8644 125.92 82.2964 124.912 82.2964 123.744V115.2H80.1364V123.744C80.1364 124.336 79.9284 124.832 79.4964 125.248L80.4404 126.192L81.0324 126.768ZM76.5204 125.232L74.9844 126.768C75.8164 127.584 76.8244 128 78.0084 128V125.856C77.4324 125.856 76.9364 125.648 76.5204 125.232ZM80.4404 126.192L81.0324 126.768L80.4404 126.192ZM87.2964 123.744L89.1844 119.984L91.0564 123.744H93.4564L89.1844 115.2L82.7844 128H85.1524L86.2404 125.856L87.2964 123.744ZM94.5124 125.872H92.1444L93.2004 128H95.5844L94.5124 125.872ZM93.3023 122.496L98.8383 128L93.3023 122.496ZM98.8383 115.2L93.3023 120.72L98.8383 115.2ZM101.846 115.2H98.8383L93.3023 120.72L92.4062 121.616L93.3023 122.496L98.8383 128H101.846L95.4463 121.6L101.846 115.2ZM112.216 122.672C112.216 123.536 111.88 124.288 111.256 124.912C110.632 125.536 109.88 125.856 109 125.856C108.12 125.856 107.352 125.552 106.728 124.912C106.12 124.304 105.816 123.552 105.816 122.672V115.2H103.688V122.672C103.688 124.128 104.2 125.408 105.24 126.448C106.28 127.488 107.544 128 109 128C110.456 128 111.736 127.488 112.776 126.448C113.832 125.408 114.344 124.144 114.344 122.672H112.216ZM124.687 118.928C124.687 118.416 124.591 117.936 124.399 117.488C124.207 117.024 123.935 116.64 123.599 116.304C123.263 115.952 122.863 115.696 122.399 115.488C121.935 115.296 121.455 115.2 120.959 115.2H114.031L116.159 117.344H120.959C121.167 117.344 121.375 117.376 121.567 117.456C121.775 117.536 121.951 117.648 122.095 117.808C122.239 117.952 122.351 118.128 122.431 118.32C122.511 118.512 122.559 118.72 122.559 118.928C122.559 119.152 122.511 119.36 122.431 119.552C122.351 119.744 122.239 119.92 122.095 120.064C121.951 120.224 121.775 120.336 121.567 120.416C121.375 120.512 121.167 120.544 120.959 120.544H116.159H115.311H114.031V122.672H116.159H120.959C121.183 122.672 121.391 122.72 121.599 122.8C121.791 122.88 121.951 123.008 122.095 123.152C122.239 123.296 122.351 123.472 122.431 123.664C122.511 123.856 122.559 124.064 122.559 124.272C122.559 124.48 122.511 124.688 122.431 124.88C122.351 125.072 122.239 125.248 122.095 125.392C121.951 125.552 121.775 125.664 121.567 125.744C121.375 125.824 121.167 125.856 120.959 125.856H116.159V128H120.959C121.471 128 121.951 127.904 122.399 127.712C122.863 127.504 123.263 127.248 123.599 126.896C123.935 126.56 124.207 126.176 124.399 125.712C124.591 125.264 124.687 124.784 124.687 124.272C124.687 123.216 124.319 122.32 123.567 121.6C124.319 120.864 124.687 119.968 124.687 118.928ZM129.097 117.312L126.969 115.2V128L129.097 125.856V117.312ZM127.5 127.824V128H136.028V125.856H129.628L127.5 127.824ZM127.5 115.2L129.628 117.344H136.028V115.2H127.5ZM127.5 120.544V122.672H129.628H136.028V120.544H129.628H127.5ZM139.8 125.856L137.672 128H146.2V125.856H139.8ZM137.672 115.2V115.552V125.104L139.8 122.96V115.552V115.2H137.672ZM147.771 122.672C148.219 122.672 148.587 122.832 148.907 123.152C149.211 123.472 149.387 123.84 149.387 124.272C149.387 124.496 149.339 124.704 149.259 124.896C149.179 125.104 149.067 125.264 148.923 125.408C148.779 125.552 148.603 125.664 148.395 125.744C148.203 125.824 147.995 125.856 147.771 125.856V128C148.811 128 149.691 127.632 150.411 126.912C151.147 126.176 151.515 125.296 151.515 124.272C151.515 123.248 151.147 122.368 150.411 121.632C149.691 120.912 148.811 120.544 147.771 120.544H144.587C144.123 120.544 143.755 120.384 143.435 120.064C143.131 119.744 142.987 119.376 142.987 118.928C142.987 118.72 143.019 118.512 143.099 118.32C143.179 118.128 143.291 117.952 143.435 117.808C143.595 117.648 143.755 117.536 143.963 117.456C144.155 117.376 144.363 117.344 144.587 117.344V115.2C143.547 115.2 142.667 115.568 141.947 116.304C141.227 117.04 140.859 117.904 140.859 118.928C140.859 119.968 141.227 120.848 141.947 121.584C142.667 122.304 143.547 122.672 144.587 122.672H147.771ZM151.912 122.496L157.448 128L151.912 122.496ZM157.448 115.2L151.912 120.72L157.448 115.2ZM160.456 115.2H157.448L151.912 120.72L151.016 121.616L151.912 122.496L157.448 128H160.456L154.056 121.6L160.456 115.2ZM164.425 117.312L162.297 115.2V128L164.425 125.856V117.312Z" fill="#FF0000"/>
<path fill-rule="evenodd" clip-rule="evenodd" d="M126.613 80.4849C125.927 80.658 125.457 80.758 124.997 80.8965C122.116 81.7465 119.215 82.4196 116.215 82.2927C112.206 82.1196 108.762 80.3003 105.725 77.3695C104.498 76.181 103.359 74.8695 102.186 73.6079C101.617 73.0002 101.481 72.3079 101.914 71.5156L103.022 69.4886L104.518 71.3425C106.676 74.0425 108.984 76.5003 112.028 77.8118C115.018 79.0965 118.063 78.908 121.12 78.3272C125.443 77.5118 129.435 75.5618 133.349 73.3733C133.478 73.3002 133.622 73.2541 134 73.0848C133.741 73.6348 133.598 73.9618 133.434 74.2695C127.72 85.1081 122.007 95.9467 116.286 106.781C115.584 108.112 115.322 108.212 114.101 107.539C106.035 103.07 97.5875 102.22 88.867 103.912C87.5034 104.178 87.2614 104.047 86.6102 102.47C85.8977 100.747 85.9045 100.793 87.517 100.443C92.0101 99.4527 96.6107 99.2413 101.16 99.816C105.418 100.354 109.663 101.062 113.569 103.324C114.128 103.651 114.425 103.378 114.705 102.854C117.183 98.1852 119.661 93.5159 122.153 88.8543C123.486 86.3581 124.847 83.8811 126.186 81.3926C126.302 81.1773 126.394 80.9503 126.613 80.4849V80.4849ZM66.4284 80.9503C67.0011 82.0388 67.5739 83.1273 68.1534 84.2119L79.6216 105.674C80.167 106.697 80.167 106.728 79.2227 107.216C77.1875 108.274 77.4398 108.547 76.1955 106.197C71.7977 97.8698 67.4068 89.5351 63.0159 81.2042L59.4568 74.4541C59.2864 74.1348 59.15 73.7887 59 73.4541L59.133 73.2541C59.6341 73.5041 60.1386 73.7387 60.633 74.0002C63.6432 75.5887 66.6875 77.0657 69.9125 77.9657C74.0511 79.1272 78.1386 79.2618 82.083 77.0426C84.5375 75.6618 86.5591 73.6271 88.3795 71.3079C91.2943 67.5848 93.6602 63.4078 95.8045 59.0539L96.3261 58C96.6091 58.4769 96.7898 58.8385 97.0182 59.1539C98.2761 60.8923 97.9795 62.4385 96.9193 64.2385C94.5534 68.254 92.1705 72.231 89.0205 75.4926C86.2045 78.408 83.0477 80.608 79.3386 81.6119C76.4273 82.4003 73.5023 82.2427 70.5807 81.6311C69.2443 81.3503 67.9148 81.0349 66.5818 80.7349L66.4284 80.9503V80.9503Z" fill="#FF0000"/>
<path d="M168 130L192 173H144" stroke="white" stroke-width="2"/>
<path d="M26 130L2 173H50" stroke="white" stroke-width="2"/>
<path d="M73 46L97 3L121 46" stroke="white" stroke-width="2"/>
</svg>
